<svg xmlns="http://www.w3.org/2000/svg" width="44" height="44" viewBox="0 0 44 44">
    <defs>
        <linearGradient id="45wqcriz5a" x2="1" y2="1" gradientUnits="objectBoundingBox">
            <stop offset="0" stop-color="#00f28c"/>
            <stop offset="1" stop-color="#58ffd2"/>
        </linearGradient>
    </defs>
    <g data-name="그룹 185659">
        <path data-name="패스 54322" d="M2 24C2 13.629 2 8.444 5.222 5.222S13.629 2 24 2s15.556 0 18.778 3.222S46 13.629 46 24s0 15.556-3.222 18.778S34.371 46 24 46 8.444 46 5.222 42.778 2 34.371 2 24z" transform="translate(-2 -2)" style="fill:url(#45wqcriz5a)"/>
    </g>
    <g data-name="그룹 187675">
        <path data-name="패스 55756" d="M1.067 2.067a3.642 3.642 0 0 0 0 5.151l2.005 2.005.047-.051L8.172 4.12q.025-.025.051-.047L6.218 2.067a3.642 3.642 0 0 0-5.151 0z" transform="translate(10 10.263)" style="fill:#fff"/>
        <path data-name="패스 55757" d="m8.641 4.49-.047.051-5.053 5.053q-.025.025-.051.047L15.6 21.752a3.642 3.642 0 1 0 5.152-5.152z" transform="translate(10.919 11.182)" style="fill:#fff"/>
        <path data-name="패스 55758" d="M13.653.388a.61.61 0 0 1 1.136 0l.544 1.384a.612.612 0 0 0 .344.345l1.378.546a.614.614 0 0 1 0 1.14l-1.378.546a.612.612 0 0 0-.344.345l-.544 1.384a.61.61 0 0 1-1.136 0l-.544-1.384a.612.612 0 0 0-.344-.345L11.387 3.8a.614.614 0 0 1 0-1.14l1.378-.546a.612.612 0 0 0 .344-.345z" transform="translate(12.895 10)" style="fill:#fff"/>
        <path data-name="패스 55759" d="M17.265 7.21a.61.61 0 0 1 1.136 0l.2.5a.612.612 0 0 0 .344.345l.5.2a.614.614 0 0 1 0 1.14l-.5.2a.612.612 0 0 0-.344.345l-.2.5a.61.61 0 0 1-1.136 0l-.2-.5a.612.612 0 0 0-.344-.345l-.5-.2a.614.614 0 0 1 0-1.14l.5-.2a.612.612 0 0 0 .344-.345z" transform="translate(14.167 11.795)" style="fill:#fff"/>
        <path data-name="패스 55760" d="M2.431 13.388a.61.61 0 0 1 1.136 0l.2.5a.612.612 0 0 0 .344.345l.5.2a.614.614 0 0 1 0 1.14l-.5.2a.612.612 0 0 0-.344.345l-.2.5a.61.61 0 0 1-1.136 0l-.2-.5a.612.612 0 0 0-.344-.345l-.5-.2a.614.614 0 0 1 0-1.14l.5-.2a.612.612 0 0 0 .344-.345z" transform="translate(10.263 13.421)" style="fill:#fff"/>
    </g>
</svg>
