<svg xmlns="http://www.w3.org/2000/svg" width="24" height="24" viewBox="0 0 24 24">
    <g style="opacity:.4">
        <g data-name="패스 54303" style="fill:none">
            <path d="M2.364 12.958C1.985 10.321 1.795 9 2.335 7.875s1.691-1.813 3.992-3.183l1.385-.825C9.8 2.622 10.846 2 12 2s2.2.622 4.288 1.867l1.385.825c2.3 1.371 3.451 2.056 3.992 3.183s.351 2.446-.029 5.083l-.279 1.942c-.488 3.387-.731 5.081-1.906 6.093S16.553 22 13.106 22h-2.212c-3.447 0-5.17 0-6.345-1.012S3.13 18.283 2.643 14.9z" style="stroke:none"/>
            <path d="M13.106 20.5c3.199 0 4.644-.026 5.366-.648.719-.62.949-2.033 1.4-5.17l.28-1.938c.358-2.493.49-3.532.16-4.22-.331-.692-1.228-1.246-3.407-2.543l-1.384-.825C13.544 3.978 12.713 3.5 12 3.5c-.713 0-1.544.478-3.52 1.656l-1.385.825C4.916 7.278 4.019 7.832 3.688 8.523c-.33.69-.198 1.728.16 4.221l.28 1.938c.451 3.137.68 4.55 1.4 5.17.722.622 2.167.648 5.366.648h2.212m0 1.5h-2.212c-3.447 0-5.17 0-6.345-1.012-1.175-1.012-1.419-2.705-1.906-6.093l-.279-1.937c-.38-2.637-.57-3.956-.029-5.083.54-1.127 1.691-1.813 3.992-3.183l1.385-.825C9.8 2.622 10.846 2 12 2c1.154 0 2.199.622 4.288 1.867l1.385.825c2.3 1.37 3.451 2.056 3.992 3.183.54 1.127.35 2.446-.03 5.083l-.278 1.937c-.487 3.388-.731 5.081-1.906 6.093C18.276 22 16.553 22 13.106 22z" style="fill:#222;stroke:none"/>
        </g>
        <path data-name="패스 54304" d="M9 16a5 5 0 0 0 6 0" style="stroke:#222;stroke-linecap:round;stroke-width:1.5px;fill:none"/>
        <path data-name="사각형 12785" style="fill:none" d="M0 0h24v24H0z"/>
    </g>
</svg>
