<svg xmlns="http://www.w3.org/2000/svg" width="112" height="32" viewBox="0 0 112 32">
    <g data-name="그룹 187312">
        <path data-name="패스 55575" d="M27.314 19.516c-.74 3.3-2.932 8-7.457 7.485-3.842-.427-3.216-4.269-1.878-8.567.37-1.224.342-2.306-.626-2.334-2.363-.057-3.444 2.9-3.729 4.013-.455 1.736-.8 3.359-.313 4.241.028.057-.4 1.793-3.188 1.309-4.355-.74 2.363-10.218-.455-10.3-2.476-.057-4.042 3.131-4.469 4.1-1.366 4.412-.911 6.347-.882 6.347 0 0 .8 1.224-1.594 1.224-4.127 0-3.188-6.688.313-13.633a1.637 1.637 0 0 1 1.537-.683c1.338 0 2.96.8 2.59 1.622q-.213.512-.427.939c1.338-1.48 3.1-2.761 5.1-2.619 2.248.142 2.761 1.537 2.675 3.3 1.338-1.48 3.017-2.676 5.01-2.561 3.358.2 3.814 2.7 2.9 5.265-.285.854-1.309 3.557.4 3.557 1.878 0 3.187-2.391 3.814-3.842.911.057.683 1.138.683 1.138" transform="translate(0 -4.865)" style="fill:#222"/>
        <path data-name="패스 55576" d="M73.608 19.576c-.74 3.3-2.9 8-7.456 7.485-5.779-.626-.911-11.072.227-13.633a1.494 1.494 0 0 1 1.452-.683c1.366 0 3.045.8 2.675 1.623-.968 2.248-3.472 7.912-1.395 7.912 1.878 0 3.216-2.391 3.814-3.842.91.057.683 1.138.683 1.138" transform="translate(-38.327 -4.925)" style="fill:#222"/>
        <path data-name="패스 55577" d="M112.273 19.516c-.74 3.3-2.932 8-7.457 7.485-3.842-.427-3.216-4.269-1.878-8.567.37-1.224.342-2.306-.626-2.334-2.363-.057-3.444 2.9-3.729 4.013-.455 1.736-.8 3.359-.313 4.241.028.057-.4 1.793-3.188 1.309-4.355-.74 2.363-10.218-.455-10.3-2.476-.057-4.042 3.131-4.469 4.1-1.366 4.412-.911 6.347-.882 6.347 0 0 .8 1.224-1.594 1.224-4.127 0-3.188-6.688.313-13.633a1.637 1.637 0 0 1 1.537-.683c1.338 0 2.96.8 2.59 1.622q-.213.512-.427.939c1.338-1.48 3.1-2.761 5.1-2.619 2.248.142 2.761 1.537 2.675 3.3 1.338-1.48 3.017-2.676 5.01-2.561 3.358.2 3.814 2.7 2.9 5.265-.285.854-1.309 3.557.4 3.557 1.878 0 3.188-2.391 3.814-3.842.911.057.683 1.138.683 1.138" transform="translate(-51.377 -4.865)" style="fill:#222"/>
        <path data-name="패스 55578" d="M160.681 19.618c-.285 1.31-2.59 7.4-7.97 7.4-2.846 0-7.087-1.878-4.5-8.681.37-.939 2.5-5.664 6.347-5.664a3.186 3.186 0 0 1 3.5 3.529c0 2.5-1.68 3.871-4.042 3.871a4.392 4.392 0 0 1-2.049-.427c-.6 1.679.171 3.614 2.761 3.614 2.362 0 3.928-2.163 5.123-4.867.028-.057 1.081-.057.825 1.224m-8.226-1.338a4.107 4.107 0 0 0 1.537.313c2.761 0 3.1-3.643 1.764-3.643-1.138 0-2.391 1.423-3.3 3.33" transform="translate(-89.142 -4.881)" style="fill:#222"/>
        <path data-name="패스 55581" d="M252.26 19.62c-.74 3.3-2.9 8-7.457 7.485-3.814-.427-3.216-4.269-1.878-8.567.4-1.224.37-2.306-.626-2.334-1.85-.028-2.932 1.736-3.529 3.074-1.451 4.611-.968 6.632-.939 6.632 0 0 .825 1.224-1.594 1.224-4.127 0-3.159-6.688.342-13.633a1.616 1.616 0 0 1 1.508-.683c1.338 0 2.96.8 2.59 1.622a7.724 7.724 0 0 0-.313.711 5.808 5.808 0 0 1 4.126-1.651c3.33.2 3.757 2.7 2.875 5.265-.285.854-1.281 3.557.4 3.557 1.878 0 3.216-2.391 3.814-3.842.911.057.683 1.138.683 1.138" transform="translate(-141.219 -4.969)" style="fill:#222"/>
        <path data-name="패스 55585" d="M75.576 2.379a2.362 2.362 0 1 1 4.724 0 2.362 2.362 0 1 1-4.724 0" transform="translate(-46.323 2)" style="fill:#03ff94"/>
        <g data-name="그룹 187316">
            <g data-name="그룹 187313">
                <path data-name="패스 55586" d="M191.922 20.536c-.292 1.49-2.947 8.422-9.037 8.422-3.272 0-7.774-1.911-5.118-9.75.777-2.4 3.4-6.381 7.644-6.608 1.166-.032 4.341.616 4.309 3.3a2.253 2.253 0 1 1-4.5.13 2.853 2.853 0 0 1 .065-.551 9 9 0 0 0-3.4 6.219c-.032 1.134.356 2.98 3.272 2.98 2.688 0 4.5-2.462 5.863-5.539 0-.065 1.2-.065.907 1.393" transform="translate(-107.461 -6.838)" style="fill:#00ff94"/>
                <path data-name="패스 55589" d="M190.529 20.536c-.264 1.49-2.673 8.422-8.2 8.422-2.967 0-7.05-1.911-4.641-9.75.7-2.4 3.084-6.381 6.932-6.608 1.058-.032 3.937.616 3.907 3.3a2.151 2.151 0 0 1-2.056 2.364 2.122 2.122 0 0 1-2.027-2.235 3.136 3.136 0 0 1 .059-.551c-1.674 1.166-3 4.211-3.084 6.219a2.643 2.643 0 0 0 2.967 2.98c2.438 0 4.083-2.462 5.317-5.539 0-.065 1.087-.065.822 1.393" transform="translate(-95.756 -6.838)" style="fill:#00ff94"/>
                <path data-name="패스 55587" d="M219.254 21.832c-.94 3.919-3.6 7-7.256 7-2.785 0-8-1.36-5.668-9.425.972-3.3 3.693-6.8 7.871-6.8 5.636 0 5.927 5.668 5.053 9.231m-4.632-6.575c-3.5.065-6.025 9.3-2.494 9.3 4.016 0 5.7-9.393 2.494-9.3" transform="translate(-124.538 -6.84)" style="fill:#00ff94"/>
                <path data-name="패스 55588" d="M203.414 50.969c-.6 1.927-7.59 6.5-13.754 5.288-6.572-1.293-8.611-5.04-8.409-5.691.194-.626.4-.982.978-1 .1-.007 1.579 2.329 6.767 3.349 4.12.81 12.061-1.664 12.807-4.067.241-.776 2.208.2 1.61 2.123" transform="translate(-111.049 -26.459)" style="fill:#00ff94"/>
            </g>
            <path data-name="패스 55590" d="M4.83 0c-.316.769-1.025 2.035-2.02 2.035-1.1 0-1.757-.241-1.244-1.432.2-.437-3.383 3.633-.323 3.964C3.654 4.839 4.8 2.351 5.192.6c0 0 .12-.57-.362-.6z" transform="rotate(11 15.8 477.649)" style="fill:#00ff94"/>
            <path data-name="패스 55591" d="M4.83 0c-.316.769-1.025 2.035-2.02 2.035-1.1 0-1.757-.241-1.244-1.432.2-.437-3.383 3.633-.323 3.964C3.654 4.839 4.8 2.351 5.192.6c0 0 .12-.57-.362-.6z" transform="rotate(28 33.195 189.797)" style="fill:#00ff94"/>
        </g>
    </g>
    <path data-name="사각형 23196" style="fill:none" d="M0 0h112v32H0z"/>
</svg>
